<svg xmlns="http://www.w3.org/2000/svg" viewBox="0 0 174 33"><defs/><defs/><path d="M24.15.527a4.25 4.25 0 11-4.25 4.25 4.25 4.25 0 014.25-4.25zm-12.5 0a4.25 4.25 0 11-4.25 4.25 4.25 4.25 0 014.25-4.25zM5.15 12.25A4.25 4.25 0 11.9 16.5a4.25 4.25 0 014.25-4.25zm25.5 0a4.25 4.25 0 11-4.25 4.25 4.25 4.25 0 014.25-4.25zm-6.5 11.723a4.25 4.25 0 11-4.25 4.25 4.25 4.25 0 014.25-4.25zm-12.5 0a4.25 4.25 0 11-4.25 4.25 4.25 4.25 0 014.25-4.25zM117.194 12.215a6.919 6.919 0 00-2.889.578 5.118 5.118 0 00-2.085 1.707V7.792a1.789 1.789 0 00-.622-1.426 2.447 2.447 0 00-1.65-.536 2.639 2.639 0 00-1.759.565 1.851 1.851 0 00-.668 1.482V25.23a1.959 1.959 0 00.635 1.546 2.513 2.513 0 001.728.565 2.453 2.453 0 001.712-.565 1.984 1.984 0 00.622-1.534V19a3.224 3.224 0 01.886-2.378 3.171 3.171 0 012.351-.892 2.293 2.293 0 011.789.635 2.828 2.828 0 01.575 1.947v6.923a1.984 1.984 0 00.623 1.546 2.45 2.45 0 001.712.565 2.511 2.511 0 001.728-.565 1.955 1.955 0 00.634-1.546v-6.867q0-6.153-5.322-6.153zM103.2 22.692a1.781 1.781 0 00-.695.134q-.318.133-.868.4a8.353 8.353 0 01-1.129.52 3.192 3.192 0 01-1.071.163 2.978 2.978 0 01-2.474-1.069 4.85 4.85 0 01-.854-3.087 4.785 4.785 0 01.854-3.073 3 3 0 012.474-1.054 3.108 3.108 0 011.085.178 9.177 9.177 0 011.085.5q.55.267.883.4a1.869 1.869 0 00.709.134 1.082 1.082 0 00.926-.49 2.136 2.136 0 00.347-1.262 1.842 1.842 0 00-.9-1.662 7.685 7.685 0 00-2.1-.92 8.691 8.691 0 00-2.329-.327 7.965 7.965 0 00-3.936.95 6.617 6.617 0 00-2.648 2.686 8.317 8.317 0 00-.94 4.023 8.478 8.478 0 00.882 3.979 6.216 6.216 0 002.532 2.612 7.763 7.763 0 003.849.92 9.76 9.76 0 002.551-.325 7.57 7.57 0 002.141-.92 1.771 1.771 0 00.9-1.633 2.139 2.139 0 00-.362-1.277 1.086 1.086 0 00-.912-.5zM138.916 20.337a1.388 1.388 0 00.327-1 7.88 7.88 0 00-.872-3.79 6.113 6.113 0 00-2.443-2.5 7.381 7.381 0 00-3.656-.877 7.764 7.764 0 00-3.89.966 6.9 6.9 0 00-2.677 2.689 7.96 7.96 0 00-.965 3.953 7.853 7.853 0 001 4.027 6.625 6.625 0 002.847 2.63 9.623 9.623 0 004.337.921 10.923 10.923 0 002.583-.341 11.5 11.5 0 002.459-.878 2.481 2.481 0 00.871-.727 1.574 1.574 0 00.312-.937 1.864 1.864 0 00-.39-1.219 1.246 1.246 0 00-1.011-.475 2.3 2.3 0 00-.716.13q-.4.132-.841.312a16.083 16.083 0 01-1.587.565 5.813 5.813 0 01-1.618.211 3.809 3.809 0 01-2.583-.787 3.876 3.876 0 01-1.12-2.539H138a1.21 1.21 0 00.916-.334zm-9.638-1.888a3.779 3.779 0 01.965-2.363 2.886 2.886 0 012.147-.818 2.662 2.662 0 012.07.8 3.768 3.768 0 01.824 2.378zM153.63 22.7a1.784 1.784 0 00-.695.134q-.318.133-.868.4a8.353 8.353 0 01-1.129.52 3.192 3.192 0 01-1.071.163 2.981 2.981 0 01-2.474-1.069 4.85 4.85 0 01-.854-3.087 4.791 4.791 0 01.854-3.073 3 3 0 012.474-1.054 3.081 3.081 0 011.085.178 8.949 8.949 0 011.085.5q.55.265.883.4a1.873 1.873 0 00.709.134 1.08 1.08 0 00.926-.49 2.129 2.129 0 00.345-1.256 1.842 1.842 0 00-.9-1.662 7.685 7.685 0 00-2.1-.92 8.691 8.691 0 00-2.329-.327 7.954 7.954 0 00-3.936.95 6.617 6.617 0 00-2.648 2.686 8.314 8.314 0 00-.94 4.023 8.492 8.492 0 00.882 3.979 6.221 6.221 0 002.532 2.612 7.763 7.763 0 003.849.92 9.76 9.76 0 002.551-.325 7.57 7.57 0 002.141-.92 1.77 1.77 0 00.9-1.633 2.139 2.139 0 00-.362-1.277 1.085 1.085 0 00-.91-.506zM172.375 23.7l-4.686-4.149 4.186-3.818a2.033 2.033 0 00.725-1.473 1.929 1.929 0 00-.661-1.457 2.179 2.179 0 00-3.084.045l-6.3 5.923v-11a1.92 1.92 0 00-.677-1.593 2.611 2.611 0 00-1.684-.542 2.661 2.661 0 00-1.712.542 1.916 1.916 0 00-.676 1.593V25.23a1.916 1.916 0 00.676 1.593 2.661 2.661 0 001.712.542 2.611 2.611 0 001.684-.542 1.918 1.918 0 00.678-1.594v-4.6l6.893 6.1a2.2 2.2 0 001.511.631 2.032 2.032 0 001.5-.661 2.1 2.1 0 00.642-1.5 1.993 1.993 0 00-.727-1.499zM54.484 22.71a1.759 1.759 0 00-.7.134q-.318.132-.868.4a8.536 8.536 0 01-1.129.52 3.247 3.247 0 01-1.071.163 2.981 2.981 0 01-2.474-1.069 4.852 4.852 0 01-.854-3.087 4.783 4.783 0 01.854-3.073 3 3 0 012.474-1.054 3.085 3.085 0 011.085.178 8.868 8.868 0 011.085.5q.549.265.883.4a1.888 1.888 0 00.709.134 1.082 1.082 0 00.926-.49 2.138 2.138 0 00.347-1.262 1.841 1.841 0 00-.9-1.662 7.685 7.685 0 00-2.1-.92 8.617 8.617 0 00-2.329-.327 7.954 7.954 0 00-3.936.95 6.6 6.6 0 00-2.648 2.686 8.312 8.312 0 00-.94 4.023 8.48 8.48 0 00.882 3.979 6.221 6.221 0 002.532 2.612 7.785 7.785 0 003.849.92 9.8 9.8 0 002.551-.325 7.6 7.6 0 002.141-.92 1.772 1.772 0 00.9-1.633 2.135 2.135 0 00-.353-1.277 1.084 1.084 0 00-.916-.5zM69.651 13.115a9 9 0 00-7.928 0 6.379 6.379 0 00-2.633 2.627 8.318 8.318 0 00-.926 4.023 8.321 8.321 0 00.926 4.023 6.474 6.474 0 002.633 2.642 8.128 8.128 0 003.964.935 8.123 8.123 0 003.964-.932 6.468 6.468 0 002.633-2.642 8.31 8.31 0 00.926-4.023 8.307 8.307 0 00-.926-4.023 6.377 6.377 0 00-2.633-2.63zm-3.963 10.836q-3.183 0-3.184-4.186t3.183-4.186a2.834 2.834 0 012.358 1.039 5 5 0 01.825 3.147q0 4.185-3.182 4.186zM89.293 12.731a2.184 2.184 0 00-1.464-.555 1.865 1.865 0 00-1.038.316 2.2 2.2 0 00-.776.945l-3.574 8.077-3.6-8.076a2.153 2.153 0 00-.79-.945 2.038 2.038 0 00-1.112-.316 2.341 2.341 0 00-1.536.571 1.733 1.733 0 00-.688 1.381 2.094 2.094 0 00.176.809l5.267 11.078a2.313 2.313 0 00.91 1.006 2.466 2.466 0 002.516 0 2.139 2.139 0 00.878-1.006l5.271-11.078a1.964 1.964 0 00.2-.871 1.708 1.708 0 00-.64-1.336z" class="a"/></svg>
